<svg xmlns="http://www.w3.org/2000/svg" xmlns:xlink="http://www.w3.org/1999/xlink" width="500" zoomAndPan="magnify" viewBox="0 0 375 374.999991" height="500" preserveAspectRatio="xMidYMid meet" version="1.0"><defs><g/><clipPath id="418b9ad891"><path d="M 0.347656 104 L 61 104 L 61 270 L 0.347656 270 Z M 0.347656 104 " clip-rule="nonzero"/></clipPath><clipPath id="4eb11642c5"><path d="M 312 104 L 372.785156 104 L 372.785156 270 L 312 270 Z M 312 104 " clip-rule="nonzero"/></clipPath></defs><g fill="#0097b2" fill-opacity="1"><g transform="translate(101.61351, 224.461608)"><g><path d="M 48.34375 0 L 48.34375 -36.75 L 24.4375 -36.75 L 24.4375 0 L 7.515625 0 L 7.515625 -83.875 L 24.4375 -83.875 L 24.4375 -50.703125 L 48.34375 -50.703125 L 48.34375 -83.875 L 65.25 -83.875 L 65.25 0 Z M 48.34375 0 "/></g></g></g><g fill="#0097b2" fill-opacity="1"><g transform="translate(161.522352, 224.461608)"><g><path d="M 51.546875 -57.015625 C 51.546875 -60.410156 50.898438 -63.175781 49.609375 -65.3125 C 48.316406 -67.457031 46.4375 -69.023438 43.96875 -70.015625 C 41.5 -71.003906 38.507812 -71.5 35 -71.5 L 26.5625 -71.5 L 26.5625 -41.484375 L 35.59375 -41.484375 C 38.832031 -41.484375 41.644531 -42 44.03125 -43.03125 C 46.414062 -44.0625 48.265625 -45.707031 49.578125 -47.96875 C 50.890625 -50.238281 51.546875 -53.253906 51.546875 -57.015625 Z M 69.203125 -57.0625 C 69.203125 -50.5625 67.804688 -45.238281 65.015625 -41.09375 C 62.222656 -36.945312 58.347656 -33.878906 53.390625 -31.890625 C 48.441406 -29.910156 42.691406 -28.921875 36.140625 -28.921875 L 26.5625 -28.921875 L 26.5625 0 L 9.578125 0 L 9.578125 -83.875 L 34.453125 -83.875 C 45.410156 -83.875 53.941406 -81.671875 60.046875 -77.265625 C 66.148438 -72.859375 69.203125 -66.125 69.203125 -57.0625 Z M 69.203125 -57.0625 "/></g></g></g><g fill="#0097b2" fill-opacity="1"><g transform="translate(221.431195, 224.461608)"><g><path d="M 49.796875 -19.109375 L 22.5625 -19.109375 L 17.40625 0 L -0.125 0 L 26.015625 -83.875 L 46.828125 -83.875 L 73.015625 0 L 54.890625 0 Z M 25.59375 -31.78125 L 46.703125 -31.78125 L 36.140625 -71.265625 Z M 25.59375 -31.78125 "/></g></g></g><g clip-path="url(#418b9ad891)"><path fill="#0097b2" d="M 59.503906 264.226562 C 51.84375 263.3125 43.003906 266.328125 35.976562 262.082031 C 29.144531 257.953125 29.835938 248.191406 30.152344 241.308594 C 30.863281 225.761719 34.589844 207.140625 23.90625 193.898438 C 21.371094 190.761719 18.160156 188.214844 14.5625 186.617188 C 16.878906 185.386719 19.015625 183.78125 20.875 181.929688 C 26.332031 176.496094 29.320312 169.164062 30.496094 161.625 C 31.820312 153.121094 30.980469 144.550781 30.351562 136.027344 C 30.03125 131.636719 29.769531 127.226562 29.964844 122.828125 C 30.105469 119.644531 30.480469 115.839844 32.695312 113.355469 C 35.265625 110.46875 39.644531 109.742188 43.308594 109.65625 C 48.230469 109.542969 53.097656 110.316406 58.019531 109.726562 C 59.953125 109.496094 61.601562 104.6875 58.902344 105.011719 C 51.1875 105.933594 43.25 103.359375 35.871094 106.757812 C 28.78125 110.019531 26.511719 117.691406 26.1875 124.929688 C 25.796875 133.765625 27.195312 142.546875 27.417969 151.363281 C 27.621094 159.144531 26.933594 167.441406 22.894531 174.277344 C 19 180.867188 11.488281 185.339844 3.765625 184.257812 C 2.09375 184.023438 0.339844 187.296875 1.15625 188.570312 C 1.199219 189.308594 1.605469 189.832031 2.558594 189.699219 C 9.535156 188.722656 16.359375 192.539062 20.65625 197.859375 C 25.628906 204.023438 27.277344 212.140625 27.542969 219.886719 C 27.847656 228.546875 26.507812 237.148438 26.292969 245.789062 C 26.121094 252.789062 26.234375 261.503906 32.492188 266.046875 C 39.796875 271.355469 49.46875 268.039062 57.695312 269.023438 C 59.714844 269.269531 61.824219 264.507812 59.503906 264.226562 Z M 59.503906 264.226562 " fill-opacity="1" fill-rule="nonzero"/></g><g clip-path="url(#4eb11642c5)"><path fill="#0097b2" d="M 313.921875 264.226562 C 321.578125 263.3125 330.417969 266.328125 337.445312 262.082031 C 344.277344 257.953125 343.585938 248.191406 343.269531 241.308594 C 342.5625 225.761719 338.835938 207.140625 349.519531 193.898438 C 352.050781 190.761719 355.265625 188.214844 358.859375 186.617188 C 356.542969 185.386719 354.40625 183.78125 352.546875 181.929688 C 347.089844 176.496094 344.105469 169.164062 342.929688 161.625 C 341.601562 153.121094 342.441406 144.550781 343.070312 136.027344 C 343.394531 131.636719 343.652344 127.226562 343.460938 122.828125 C 343.320312 119.644531 342.945312 115.839844 340.730469 113.355469 C 338.160156 110.46875 333.78125 109.742188 330.117188 109.65625 C 325.191406 109.542969 320.328125 110.316406 315.40625 109.726562 C 313.46875 109.496094 311.820312 104.6875 314.519531 105.011719 C 322.238281 105.933594 330.175781 103.359375 337.550781 106.757812 C 344.644531 110.019531 346.914062 117.691406 347.234375 124.929688 C 347.625 133.765625 346.230469 142.546875 346.003906 151.363281 C 345.804688 159.144531 346.488281 167.441406 350.53125 174.277344 C 354.421875 180.867188 361.9375 185.339844 369.660156 184.257812 C 371.328125 184.023438 373.082031 187.296875 372.269531 188.570312 C 372.222656 189.308594 371.816406 189.832031 370.863281 189.699219 C 363.890625 188.722656 357.066406 192.539062 352.769531 197.859375 C 347.796875 204.023438 346.148438 212.140625 345.878906 219.886719 C 345.578125 228.546875 346.917969 237.148438 347.132812 245.789062 C 347.304688 252.789062 347.1875 261.503906 340.933594 266.046875 C 333.628906 271.355469 323.957031 268.039062 315.726562 269.023438 C 313.710938 269.269531 311.601562 264.507812 313.921875 264.226562 Z M 313.921875 264.226562 " fill-opacity="1" fill-rule="nonzero"/></g></svg>