<svg xmlns="http://www.w3.org/2000/svg" xmlns:xlink="http://www.w3.org/1999/xlink" width="500" zoomAndPan="magnify" viewBox="0 0 375 374.999991" height="500" preserveAspectRatio="xMidYMid meet" version="1.0"><defs><clipPath id="99c21bb347"><path d="M 0 0 L 375 0 L 375 205.5 L 0 205.5 Z M 0 0 " clip-rule="nonzero"/></clipPath></defs><g clip-path="url(#99c21bb347)"><path fill="#0097b2" d="M 7.988281 4.34375 C 7.988281 4.851562 7.890625 5.34375 7.695312 5.816406 C 7.5 6.285156 7.222656 6.703125 6.859375 7.0625 C 6.496094 7.425781 6.082031 7.703125 5.609375 7.898438 C 5.136719 8.09375 4.644531 8.1875 4.132812 8.1875 C 3.621094 8.1875 3.132812 8.089844 2.660156 7.894531 C 2.1875 7.699219 1.769531 7.421875 1.410156 7.058594 C 1.050781 6.699219 0.773438 6.28125 0.578125 5.808594 C 0.382812 5.335938 0.285156 4.847656 0.285156 4.335938 C 0.285156 3.824219 0.386719 3.335938 0.582031 2.863281 C 0.777344 2.394531 1.058594 1.976562 1.417969 1.617188 C 1.78125 1.257812 2.199219 0.980469 2.671875 0.785156 C 3.144531 0.589844 3.636719 0.496094 4.148438 0.496094 C 4.65625 0.496094 5.148438 0.597656 5.617188 0.792969 C 6.089844 0.988281 6.503906 1.265625 6.863281 1.625 C 7.222656 1.988281 7.5 2.402344 7.695312 2.871094 C 7.890625 3.34375 7.988281 3.832031 7.988281 4.34375 Z M 44.886719 0.496094 C 44.375 0.496094 43.886719 0.589844 43.414062 0.785156 C 42.941406 0.980469 42.523438 1.257812 42.160156 1.617188 C 41.796875 1.976562 41.519531 2.394531 41.324219 2.863281 C 41.125 3.335938 41.027344 3.824219 41.027344 4.335938 C 41.027344 4.847656 41.121094 5.335938 41.316406 5.808594 C 41.511719 6.28125 41.789062 6.699219 42.152344 7.058594 C 42.511719 7.421875 42.929688 7.699219 43.398438 7.894531 C 43.871094 8.089844 44.363281 8.1875 44.875 8.1875 C 45.386719 8.1875 45.878906 8.09375 46.347656 7.898438 C 46.820312 7.703125 47.238281 7.425781 47.601562 7.0625 C 47.960938 6.703125 48.238281 6.285156 48.4375 5.816406 C 48.632812 5.34375 48.730469 4.851562 48.730469 4.34375 C 48.730469 3.832031 48.632812 3.34375 48.4375 2.871094 C 48.242188 2.402344 47.964844 1.988281 47.605469 1.625 C 47.246094 1.265625 46.828125 0.988281 46.359375 0.792969 C 45.886719 0.597656 45.398438 0.496094 44.886719 0.496094 Z M 85.617188 0.496094 C 85.109375 0.496094 84.617188 0.59375 84.144531 0.789062 C 83.671875 0.984375 83.257812 1.261719 82.894531 1.621094 C 82.535156 1.984375 82.253906 2.398438 82.058594 2.871094 C 81.863281 3.34375 81.765625 3.832031 81.765625 4.34375 C 81.765625 4.851562 81.863281 5.34375 82.058594 5.8125 C 82.253906 6.285156 82.535156 6.703125 82.894531 7.0625 C 83.257812 7.421875 83.671875 7.699219 84.144531 7.894531 C 84.617188 8.089844 85.109375 8.1875 85.617188 8.1875 C 86.128906 8.1875 86.621094 8.089844 87.09375 7.894531 C 87.5625 7.699219 87.980469 7.421875 88.34375 7.0625 C 88.703125 6.703125 88.980469 6.285156 89.175781 5.8125 C 89.371094 5.34375 89.46875 4.851562 89.46875 4.34375 C 89.46875 3.832031 89.371094 3.34375 89.175781 2.871094 C 88.980469 2.398438 88.703125 1.984375 88.34375 1.621094 C 87.980469 1.261719 87.5625 0.984375 87.09375 0.789062 C 86.621094 0.59375 86.128906 0.496094 85.617188 0.496094 Z M 126.378906 0.496094 C 125.867188 0.496094 125.378906 0.59375 124.90625 0.789062 C 124.433594 0.984375 124.015625 1.261719 123.65625 1.621094 C 123.292969 1.984375 123.015625 2.398438 122.820312 2.871094 C 122.625 3.34375 122.527344 3.832031 122.527344 4.34375 C 122.527344 4.851562 122.625 5.34375 122.820312 5.8125 C 123.015625 6.285156 123.292969 6.703125 123.65625 7.0625 C 124.015625 7.421875 124.433594 7.699219 124.90625 7.894531 C 125.378906 8.089844 125.867188 8.1875 126.378906 8.1875 C 126.890625 8.1875 127.382812 8.089844 127.851562 7.894531 C 128.324219 7.699219 128.742188 7.421875 129.101562 7.0625 C 129.464844 6.703125 129.742188 6.285156 129.9375 5.8125 C 130.132812 5.34375 130.230469 4.851562 130.230469 4.34375 C 130.230469 3.832031 130.132812 3.34375 129.9375 2.871094 C 129.742188 2.398438 129.464844 1.984375 129.101562 1.621094 C 128.742188 1.261719 128.324219 0.984375 127.851562 0.789062 C 127.382812 0.59375 126.890625 0.496094 126.378906 0.496094 Z M 167.121094 0.496094 C 166.609375 0.496094 166.117188 0.59375 165.644531 0.789062 C 165.175781 0.984375 164.757812 1.261719 164.394531 1.621094 C 164.035156 1.984375 163.757812 2.398438 163.5625 2.871094 C 163.367188 3.34375 163.269531 3.832031 163.269531 4.34375 C 163.269531 4.851562 163.367188 5.34375 163.5625 5.8125 C 163.757812 6.285156 164.035156 6.703125 164.394531 7.0625 C 164.757812 7.421875 165.175781 7.699219 165.644531 7.894531 C 166.117188 8.089844 166.609375 8.1875 167.121094 8.1875 C 167.628906 8.1875 168.121094 8.089844 168.59375 7.894531 C 169.066406 7.699219 169.480469 7.421875 169.84375 7.0625 C 170.203125 6.703125 170.484375 6.285156 170.679688 5.8125 C 170.875 5.34375 170.972656 4.851562 170.972656 4.34375 C 170.972656 3.832031 170.871094 3.339844 170.675781 2.867188 C 170.480469 2.394531 170.199219 1.976562 169.835938 1.617188 C 169.472656 1.253906 169.054688 0.976562 168.578125 0.785156 C 168.105469 0.589844 167.613281 0.492188 167.101562 0.496094 Z M 207.839844 0.496094 C 207.328125 0.496094 206.839844 0.589844 206.367188 0.785156 C 205.894531 0.980469 205.476562 1.257812 205.113281 1.617188 C 204.75 1.976562 204.472656 2.394531 204.277344 2.863281 C 204.078125 3.335938 203.980469 3.824219 203.980469 4.335938 C 203.980469 4.847656 204.074219 5.335938 204.269531 5.808594 C 204.464844 6.28125 204.742188 6.699219 205.105469 7.058594 C 205.464844 7.421875 205.882812 7.699219 206.351562 7.894531 C 206.824219 8.089844 207.316406 8.1875 207.828125 8.1875 C 208.339844 8.1875 208.832031 8.09375 209.300781 7.898438 C 209.773438 7.703125 210.191406 7.425781 210.554688 7.0625 C 210.914062 6.703125 211.191406 6.285156 211.390625 5.816406 C 211.585938 5.34375 211.683594 4.851562 211.683594 4.34375 C 211.683594 3.832031 211.585938 3.34375 211.390625 2.871094 C 211.195312 2.402344 210.917969 1.988281 210.558594 1.625 C 210.199219 1.265625 209.78125 0.988281 209.3125 0.792969 C 208.839844 0.597656 208.351562 0.496094 207.839844 0.496094 Z M 248.582031 0.496094 C 248.070312 0.5 247.582031 0.601562 247.113281 0.800781 C 246.640625 0.996094 246.230469 1.277344 245.871094 1.640625 C 245.511719 2.003906 245.238281 2.417969 245.042969 2.890625 C 244.851562 3.363281 244.757812 3.851562 244.757812 4.363281 C 244.761719 4.871094 244.863281 5.359375 245.058594 5.832031 C 245.257812 6.300781 245.535156 6.714844 245.898438 7.074219 C 246.261719 7.429688 246.675781 7.707031 247.148438 7.902344 C 247.621094 8.09375 248.109375 8.191406 248.621094 8.1875 C 249.128906 8.1875 249.621094 8.089844 250.089844 7.894531 C 250.5625 7.699219 250.976562 7.417969 251.335938 7.058594 C 251.699219 6.699219 251.976562 6.28125 252.171875 5.8125 C 252.363281 5.339844 252.460938 4.851562 252.460938 4.34375 C 252.460938 3.828125 252.363281 3.335938 252.167969 2.863281 C 251.96875 2.390625 251.6875 1.972656 251.324219 1.613281 C 250.960938 1.25 250.539062 0.972656 250.066406 0.78125 C 249.589844 0.585938 249.09375 0.492188 248.582031 0.496094 Z M 289.3125 0.496094 C 288.800781 0.496094 288.308594 0.59375 287.839844 0.789062 C 287.367188 0.984375 286.949219 1.261719 286.589844 1.621094 C 286.226562 1.984375 285.949219 2.398438 285.753906 2.871094 C 285.558594 3.34375 285.460938 3.832031 285.460938 4.34375 C 285.460938 4.851562 285.558594 5.34375 285.753906 5.8125 C 285.949219 6.285156 286.226562 6.703125 286.589844 7.0625 C 286.949219 7.421875 287.367188 7.699219 287.839844 7.894531 C 288.308594 8.089844 288.800781 8.1875 289.3125 8.1875 C 289.824219 8.1875 290.316406 8.089844 290.785156 7.894531 C 291.257812 7.699219 291.675781 7.421875 292.035156 7.0625 C 292.398438 6.703125 292.675781 6.285156 292.871094 5.8125 C 293.066406 5.34375 293.164062 4.851562 293.164062 4.34375 C 293.164062 3.832031 293.066406 3.34375 292.871094 2.871094 C 292.675781 2.398438 292.398438 1.984375 292.035156 1.621094 C 291.675781 1.261719 291.257812 0.984375 290.785156 0.789062 C 290.316406 0.59375 289.824219 0.496094 289.3125 0.496094 Z M 330.054688 0.496094 C 329.542969 0.496094 329.050781 0.59375 328.578125 0.789062 C 328.105469 0.984375 327.691406 1.261719 327.328125 1.621094 C 326.96875 1.984375 326.691406 2.398438 326.496094 2.871094 C 326.300781 3.34375 326.203125 3.832031 326.203125 4.34375 C 326.203125 4.851562 326.300781 5.34375 326.496094 5.8125 C 326.691406 6.285156 326.96875 6.703125 327.328125 7.0625 C 327.691406 7.421875 328.105469 7.699219 328.578125 7.894531 C 329.050781 8.089844 329.542969 8.1875 330.054688 8.1875 C 330.5625 8.1875 331.054688 8.089844 331.527344 7.894531 C 332 7.699219 332.414062 7.421875 332.777344 7.0625 C 333.136719 6.703125 333.414062 6.285156 333.613281 5.8125 C 333.808594 5.34375 333.90625 4.851562 333.90625 4.34375 C 333.90625 3.832031 333.808594 3.34375 333.613281 2.871094 C 333.417969 2.398438 333.136719 1.984375 332.777344 1.621094 C 332.414062 1.261719 332 0.984375 331.527344 0.789062 C 331.054688 0.59375 330.5625 0.496094 330.054688 0.496094 Z M 370.792969 8.179688 C 371.304688 8.179688 371.796875 8.082031 372.269531 7.886719 C 372.742188 7.691406 373.15625 7.414062 373.519531 7.050781 C 373.878906 6.691406 374.15625 6.273438 374.351562 5.800781 C 374.546875 5.332031 374.644531 4.839844 374.644531 4.328125 C 374.644531 3.820312 374.546875 3.328125 374.351562 2.855469 C 374.15625 2.386719 373.875 1.96875 373.515625 1.609375 C 373.152344 1.25 372.734375 0.972656 372.261719 0.777344 C 371.789062 0.582031 371.296875 0.484375 370.789062 0.488281 C 370.277344 0.488281 369.785156 0.585938 369.3125 0.78125 C 368.839844 0.976562 368.425781 1.257812 368.066406 1.617188 C 367.703125 1.980469 367.425781 2.398438 367.230469 2.871094 C 367.039062 3.339844 366.941406 3.832031 366.941406 4.34375 C 366.945312 4.851562 367.042969 5.339844 367.238281 5.8125 C 367.433594 6.28125 367.714844 6.695312 368.074219 7.054688 C 368.433594 7.414062 368.851562 7.691406 369.324219 7.886719 C 369.792969 8.082031 370.285156 8.179688 370.792969 8.179688 Z M 4.148438 39.84375 C 3.636719 39.84375 3.144531 39.9375 2.671875 40.132812 C 2.199219 40.328125 1.78125 40.605469 1.417969 40.964844 C 1.058594 41.324219 0.777344 41.738281 0.582031 42.210938 C 0.386719 42.683594 0.285156 43.171875 0.285156 43.683594 C 0.285156 44.195312 0.382812 44.683594 0.578125 45.15625 C 0.773438 45.628906 1.050781 46.042969 1.410156 46.40625 C 1.769531 46.765625 2.1875 47.046875 2.660156 47.242188 C 3.132812 47.4375 3.621094 47.535156 4.132812 47.535156 C 4.644531 47.535156 5.136719 47.4375 5.609375 47.242188 C 6.082031 47.050781 6.496094 46.769531 6.859375 46.410156 C 7.222656 46.050781 7.5 45.632812 7.695312 45.164062 C 7.890625 44.691406 7.988281 44.199219 7.988281 43.691406 C 7.988281 43.179688 7.890625 42.691406 7.695312 42.21875 C 7.5 41.75 7.222656 41.335938 6.863281 40.972656 C 6.503906 40.613281 6.089844 40.335938 5.617188 40.140625 C 5.148438 39.945312 4.65625 39.84375 4.148438 39.84375 Z M 44.886719 39.84375 C 44.375 39.84375 43.886719 39.9375 43.414062 40.132812 C 42.941406 40.328125 42.523438 40.605469 42.160156 40.964844 C 41.796875 41.324219 41.519531 41.738281 41.324219 42.210938 C 41.125 42.683594 41.027344 43.171875 41.027344 43.683594 C 41.027344 44.195312 41.121094 44.683594 41.316406 45.15625 C 41.511719 45.628906 41.789062 46.042969 42.152344 46.40625 C 42.511719 46.765625 42.929688 47.046875 43.398438 47.242188 C 43.871094 47.4375 44.363281 47.535156 44.875 47.535156 C 45.386719 47.535156 45.878906 47.4375 46.347656 47.242188 C 46.820312 47.050781 47.238281 46.769531 47.601562 46.410156 C 47.960938 46.050781 48.238281 45.632812 48.4375 45.164062 C 48.632812 44.691406 48.730469 44.199219 48.730469 43.691406 C 48.730469 43.179688 48.632812 42.691406 48.4375 42.21875 C 48.242188 41.75 47.964844 41.335938 47.605469 40.972656 C 47.246094 40.613281 46.828125 40.335938 46.359375 40.140625 C 45.886719 39.945312 45.398438 39.84375 44.886719 39.84375 Z M 85.617188 39.84375 C 85.109375 39.84375 84.617188 39.941406 84.144531 40.136719 C 83.671875 40.332031 83.257812 40.609375 82.894531 40.96875 C 82.535156 41.332031 82.253906 41.746094 82.058594 42.21875 C 81.863281 42.6875 81.765625 43.179688 81.765625 43.691406 C 81.765625 44.199219 81.863281 44.691406 82.058594 45.160156 C 82.253906 45.632812 82.535156 46.046875 82.894531 46.410156 C 83.257812 46.769531 83.671875 47.046875 84.144531 47.242188 C 84.617188 47.4375 85.109375 47.535156 85.617188 47.535156 C 86.128906 47.535156 86.621094 47.4375 87.09375 47.242188 C 87.5625 47.046875 87.980469 46.769531 88.34375 46.410156 C 88.703125 46.046875 88.980469 45.632812 89.175781 45.160156 C 89.371094 44.691406 89.46875 44.199219 89.46875 43.691406 C 89.46875 43.179688 89.371094 42.6875 89.175781 42.21875 C 88.980469 41.746094 88.703125 41.332031 88.34375 40.96875 C 87.980469 40.609375 87.5625 40.332031 87.09375 40.136719 C 86.621094 39.941406 86.128906 39.84375 85.617188 39.84375 Z M 126.378906 39.84375 C 125.867188 39.84375 125.378906 39.941406 124.90625 40.136719 C 124.433594 40.332031 124.015625 40.609375 123.65625 40.96875 C 123.292969 41.332031 123.015625 41.746094 122.820312 42.21875 C 122.625 42.6875 122.527344 43.179688 122.527344 43.691406 C 122.527344 44.199219 122.625 44.691406 122.820312 45.160156 C 123.015625 45.632812 123.292969 46.046875 123.65625 46.410156 C 124.015625 46.769531 124.433594 47.046875 124.90625 47.242188 C 125.378906 47.4375 125.867188 47.535156 126.378906 47.535156 C 126.890625 47.535156 127.382812 47.4375 127.851562 47.242188 C 128.324219 47.046875 128.742188 46.769531 129.101562 46.410156 C 129.464844 46.046875 129.742188 45.632812 129.9375 45.160156 C 130.132812 44.691406 130.230469 44.199219 130.230469 43.691406 C 130.230469 43.179688 130.132812 42.6875 129.9375 42.21875 C 129.742188 41.746094 129.464844 41.332031 129.101562 40.96875 C 128.742188 40.609375 128.324219 40.332031 127.851562 40.136719 C 127.382812 39.941406 126.890625 39.84375 126.378906 39.84375 Z M 167.121094 39.84375 C 166.609375 39.84375 166.117188 39.941406 165.644531 40.136719 C 165.175781 40.332031 164.757812 40.609375 164.394531 40.96875 C 164.035156 41.332031 163.757812 41.746094 163.5625 42.21875 C 163.367188 42.6875 163.269531 43.179688 163.269531 43.691406 C 163.269531 44.199219 163.367188 44.691406 163.5625 45.160156 C 163.757812 45.632812 164.035156 46.046875 164.394531 46.410156 C 164.757812 46.769531 165.175781 47.046875 165.644531 47.242188 C 166.117188 47.4375 166.609375 47.535156 167.121094 47.535156 C 167.628906 47.535156 168.121094 47.4375 168.59375 47.242188 C 169.066406 47.046875 169.480469 46.769531 169.84375 46.410156 C 170.203125 46.046875 170.484375 45.632812 170.679688 45.160156 C 170.875 44.691406 170.972656 44.199219 170.972656 43.691406 C 170.972656 43.179688 170.871094 42.6875 170.675781 42.214844 C 170.480469 41.742188 170.199219 41.324219 169.835938 40.964844 C 169.472656 40.601562 169.054688 40.324219 168.578125 40.128906 C 168.105469 39.9375 167.613281 39.839844 167.101562 39.84375 Z M 207.859375 39.84375 C 207.347656 39.84375 206.859375 39.9375 206.386719 40.132812 C 205.914062 40.328125 205.496094 40.605469 205.132812 40.964844 C 204.769531 41.324219 204.492188 41.738281 204.296875 42.210938 C 204.097656 42.683594 204 43.171875 204 43.683594 C 204 44.195312 204.09375 44.683594 204.289062 45.15625 C 204.484375 45.628906 204.761719 46.042969 205.125 46.40625 C 205.484375 46.765625 205.902344 47.046875 206.371094 47.242188 C 206.84375 47.4375 207.335938 47.535156 207.847656 47.535156 C 208.359375 47.535156 208.851562 47.4375 209.320312 47.242188 C 209.792969 47.050781 210.210938 46.769531 210.574219 46.410156 C 210.933594 46.050781 211.214844 45.632812 211.410156 45.164062 C 211.605469 44.691406 211.703125 44.199219 211.703125 43.691406 C 211.703125 43.179688 211.605469 42.6875 211.40625 42.214844 C 211.210938 41.742188 210.933594 41.328125 210.570312 40.964844 C 210.207031 40.605469 209.789062 40.328125 209.316406 40.132812 C 208.84375 39.9375 208.351562 39.84375 207.839844 39.84375 Z M 248.601562 39.84375 C 248.089844 39.84375 247.597656 39.9375 247.125 40.132812 C 246.652344 40.328125 246.234375 40.605469 245.875 40.964844 C 245.511719 41.324219 245.230469 41.738281 245.035156 42.210938 C 244.839844 42.683594 244.742188 43.171875 244.738281 43.683594 C 244.738281 44.195312 244.835938 44.683594 245.03125 45.15625 C 245.226562 45.628906 245.503906 46.042969 245.863281 46.40625 C 246.226562 46.765625 246.640625 47.046875 247.113281 47.242188 C 247.585938 47.4375 248.078125 47.535156 248.589844 47.535156 C 249.097656 47.535156 249.589844 47.4375 250.0625 47.242188 C 250.535156 47.050781 250.953125 46.769531 251.3125 46.410156 C 251.675781 46.050781 251.953125 45.632812 252.148438 45.164062 C 252.34375 44.691406 252.441406 44.199219 252.441406 43.691406 C 252.441406 43.179688 252.34375 42.6875 252.148438 42.214844 C 251.953125 41.742188 251.671875 41.328125 251.3125 40.964844 C 250.949219 40.605469 250.53125 40.328125 250.058594 40.132812 C 249.585938 39.9375 249.09375 39.84375 248.582031 39.84375 Z M 289.332031 39.84375 C 288.820312 39.84375 288.328125 39.941406 287.859375 40.136719 C 287.386719 40.332031 286.96875 40.609375 286.609375 40.96875 C 286.246094 41.332031 285.96875 41.746094 285.773438 42.21875 C 285.578125 42.6875 285.480469 43.179688 285.480469 43.691406 C 285.480469 44.199219 285.578125 44.691406 285.773438 45.160156 C 285.96875 45.632812 286.246094 46.046875 286.609375 46.410156 C 286.96875 46.769531 287.386719 47.046875 287.859375 47.242188 C 288.328125 47.4375 288.820312 47.535156 289.332031 47.535156 C 289.84375 47.535156 290.335938 47.4375 290.804688 47.242188 C 291.277344 47.046875 291.695312 46.769531 292.054688 46.410156 C 292.417969 46.046875 292.695312 45.632812 292.890625 45.160156 C 293.085938 44.691406 293.183594 44.199219 293.183594 43.691406 C 293.183594 43.179688 293.085938 42.6875 292.886719 42.214844 C 292.691406 41.742188 292.410156 41.324219 292.046875 40.964844 C 291.683594 40.601562 291.265625 40.324219 290.792969 40.128906 C 290.316406 39.9375 289.824219 39.839844 289.3125 39.84375 Z M 330.074219 39.84375 C 329.5625 39.84375 329.070312 39.941406 328.597656 40.136719 C 328.128906 40.332031 327.710938 40.609375 327.347656 40.96875 C 326.988281 41.332031 326.710938 41.746094 326.515625 42.21875 C 326.320312 42.6875 326.222656 43.179688 326.222656 43.691406 C 326.222656 44.199219 326.320312 44.691406 326.515625 45.160156 C 326.710938 45.632812 326.988281 46.046875 327.347656 46.410156 C 327.710938 46.769531 328.128906 47.046875 328.597656 47.242188 C 329.070312 47.4375 329.5625 47.535156 330.074219 47.535156 C 330.582031 47.535156 331.074219 47.4375 331.546875 47.242188 C 332.019531 47.046875 332.433594 46.769531 332.796875 46.410156 C 333.15625 46.046875 333.4375 45.632812 333.632812 45.160156 C 333.828125 44.691406 333.925781 44.199219 333.925781 43.691406 C 333.925781 43.179688 333.824219 42.6875 333.628906 42.214844 C 333.433594 41.742188 333.152344 41.324219 332.789062 40.964844 C 332.425781 40.601562 332.007812 40.324219 331.53125 40.128906 C 331.058594 39.9375 330.566406 39.839844 330.054688 39.84375 Z M 370.8125 39.84375 C 370.300781 39.835938 369.808594 39.925781 369.332031 40.113281 C 368.855469 40.304688 368.433594 40.578125 368.070312 40.933594 C 367.703125 41.289062 367.417969 41.703125 367.214844 42.171875 C 367.011719 42.640625 366.910156 43.132812 366.902344 43.644531 C 366.898438 44.15625 366.988281 44.648438 367.179688 45.121094 C 367.371094 45.597656 367.644531 46.015625 368.003906 46.382812 C 368.363281 46.746094 368.777344 47.027344 369.246094 47.230469 C 369.71875 47.429688 370.210938 47.53125 370.722656 47.535156 C 371.234375 47.539062 371.726562 47.445312 372.199219 47.253906 C 372.675781 47.0625 373.09375 46.785156 373.460938 46.425781 C 373.824219 46.070312 374.105469 45.652344 374.304688 45.183594 C 374.503906 44.710938 374.601562 44.21875 374.605469 43.710938 C 374.609375 43.199219 374.515625 42.710938 374.324219 42.242188 C 374.128906 41.769531 373.855469 41.351562 373.5 40.992188 C 373.140625 40.628906 372.730469 40.347656 372.261719 40.148438 C 371.792969 39.949219 371.304688 39.847656 370.792969 39.84375 Z M 4.148438 79.238281 C 3.636719 79.238281 3.144531 79.335938 2.675781 79.527344 C 2.203125 79.722656 1.785156 79.996094 1.425781 80.355469 C 1.0625 80.714844 0.78125 81.128906 0.585938 81.597656 C 0.386719 82.066406 0.289062 82.558594 0.285156 83.066406 C 0.285156 83.574219 0.378906 84.066406 0.570312 84.539062 C 0.761719 85.007812 1.039062 85.425781 1.398438 85.789062 C 1.753906 86.152344 2.167969 86.429688 2.636719 86.628906 C 3.109375 86.828125 3.597656 86.929688 4.109375 86.933594 C 4.617188 86.9375 5.109375 86.84375 5.582031 86.652344 C 6.054688 86.460938 6.472656 86.1875 6.835938 85.832031 C 7.199219 85.472656 7.480469 85.0625 7.679688 84.59375 C 7.882812 84.125 7.984375 83.632812 7.988281 83.125 C 7.992188 82.613281 7.898438 82.117188 7.707031 81.644531 C 7.515625 81.167969 7.238281 80.75 6.878906 80.382812 C 6.515625 80.019531 6.101562 79.738281 5.628906 79.539062 C 5.152344 79.339844 4.660156 79.242188 4.148438 79.238281 Z M 44.886719 79.238281 C 44.375 79.238281 43.882812 79.335938 43.410156 79.53125 C 42.9375 79.722656 42.519531 80 42.160156 80.363281 C 41.796875 80.722656 41.519531 81.136719 41.320312 81.609375 C 41.125 82.082031 41.027344 82.574219 41.027344 83.082031 C 41.027344 83.59375 41.125 84.085938 41.320312 84.554688 C 41.515625 85.027344 41.792969 85.445312 42.15625 85.804688 C 42.515625 86.167969 42.933594 86.445312 43.40625 86.640625 C 43.878906 86.835938 44.371094 86.933594 44.882812 86.933594 C 45.390625 86.933594 45.882812 86.832031 46.355469 86.636719 C 46.828125 86.441406 47.246094 86.164062 47.605469 85.800781 C 47.96875 85.441406 48.246094 85.023438 48.4375 84.550781 C 48.632812 84.078125 48.730469 83.585938 48.730469 83.078125 C 48.726562 82.566406 48.628906 82.078125 48.433594 81.609375 C 48.238281 81.140625 47.960938 80.726562 47.601562 80.367188 C 47.242188 80.007812 46.828125 79.730469 46.355469 79.535156 C 45.886719 79.339844 45.398438 79.242188 44.886719 79.238281 Z M 85.617188 79.238281 C 85.109375 79.238281 84.617188 79.335938 84.148438 79.53125 C 83.675781 79.726562 83.261719 80.003906 82.898438 80.363281 C 82.539062 80.722656 82.261719 81.136719 82.0625 81.605469 C 81.867188 82.074219 81.769531 82.5625 81.765625 83.074219 C 81.765625 83.582031 81.859375 84.070312 82.054688 84.542969 C 82.246094 85.015625 82.523438 85.429688 82.882812 85.792969 C 83.238281 86.152344 83.652344 86.433594 84.125 86.628906 C 84.59375 86.828125 85.082031 86.929688 85.59375 86.933594 C 86.101562 86.9375 86.59375 86.84375 87.066406 86.652344 C 87.539062 86.460938 87.957031 86.1875 88.320312 85.828125 C 88.683594 85.472656 88.964844 85.058594 89.164062 84.589844 C 89.363281 84.121094 89.464844 83.632812 89.46875 83.125 C 89.472656 82.871094 89.449219 82.621094 89.402344 82.371094 C 89.355469 82.121094 89.285156 81.878906 89.1875 81.640625 C 89.09375 81.40625 88.976562 81.183594 88.835938 80.96875 C 88.695312 80.757812 88.535156 80.5625 88.355469 80.378906 C 88.175781 80.199219 87.980469 80.039062 87.769531 79.894531 C 87.558594 79.753906 87.335938 79.632812 87.101562 79.535156 C 86.867188 79.4375 86.625 79.363281 86.375 79.316406 C 86.125 79.265625 85.875 79.238281 85.617188 79.238281 Z M 126.359375 79.238281 C 125.847656 79.238281 125.355469 79.335938 124.882812 79.53125 C 124.414062 79.726562 123.996094 80.007812 123.636719 80.367188 C 123.273438 80.730469 122.996094 81.144531 122.800781 81.617188 C 122.605469 82.089844 122.507812 82.578125 122.507812 83.089844 C 122.507812 83.601562 122.605469 84.089844 122.800781 84.5625 C 123 85.03125 123.277344 85.449219 123.640625 85.808594 C 124 86.167969 124.417969 86.445312 124.890625 86.640625 C 125.363281 86.835938 125.855469 86.933594 126.367188 86.933594 C 126.875 86.929688 127.367188 86.832031 127.839844 86.636719 C 128.3125 86.441406 128.726562 86.160156 129.089844 85.800781 C 129.449219 85.4375 129.726562 85.023438 129.921875 84.550781 C 130.117188 84.078125 130.210938 83.585938 130.210938 83.078125 C 130.210938 82.570312 130.113281 82.082031 129.917969 81.613281 C 129.722656 81.144531 129.445312 80.730469 129.085938 80.371094 C 128.726562 80.011719 128.3125 79.734375 127.84375 79.539062 C 127.375 79.339844 126.886719 79.242188 126.378906 79.238281 Z M 167.101562 79.238281 C 166.589844 79.238281 166.097656 79.335938 165.625 79.53125 C 165.152344 79.726562 164.738281 80.007812 164.375 80.367188 C 164.015625 80.730469 163.734375 81.144531 163.539062 81.617188 C 163.34375 82.089844 163.25 82.578125 163.25 83.089844 C 163.25 83.601562 163.347656 84.089844 163.542969 84.5625 C 163.738281 85.03125 164.019531 85.449219 164.378906 85.808594 C 164.742188 86.167969 165.160156 86.445312 165.632812 86.640625 C 166.105469 86.835938 166.59375 86.933594 167.105469 86.933594 C 167.617188 86.929688 168.109375 86.832031 168.582031 86.636719 C 169.050781 86.441406 169.46875 86.160156 169.828125 85.800781 C 170.191406 85.4375 170.46875 85.023438 170.660156 84.550781 C 170.855469 84.078125 170.953125 83.585938 170.953125 83.078125 C 170.949219 82.566406 170.851562 82.078125 170.65625 81.609375 C 170.460938 81.136719 170.179688 80.722656 169.820312 80.363281 C 169.460938 80.003906 169.042969 79.726562 168.570312 79.53125 C 168.101562 79.335938 167.609375 79.238281 167.101562 79.238281 Z M 207.839844 79.238281 C 207.328125 79.238281 206.835938 79.335938 206.363281 79.53125 C 205.890625 79.722656 205.472656 80 205.113281 80.363281 C 204.75 80.722656 204.472656 81.136719 204.273438 81.609375 C 204.078125 82.082031 203.980469 82.574219 203.980469 83.082031 C 203.980469 83.59375 204.078125 84.085938 204.273438 84.554688 C 204.46875 85.027344 204.746094 85.445312 205.109375 85.804688 C 205.46875 86.167969 205.886719 86.445312 206.359375 86.640625 C 206.832031 86.835938 207.324219 86.933594 207.835938 86.933594 C 208.34375 86.933594 208.835938 86.832031 209.308594 86.636719 C 209.78125 86.441406 210.199219 86.164062 210.558594 85.800781 C 210.917969 85.441406 211.199219 85.023438 211.390625 84.550781 C 211.585938 84.078125 211.683594 83.585938 211.683594 83.078125 C 211.679688 82.566406 211.582031 82.078125 211.386719 81.609375 C 211.191406 81.140625 210.914062 80.726562 210.554688 80.367188 C 210.195312 80.007812 209.78125 79.730469 209.308594 79.535156 C 208.839844 79.339844 208.351562 79.242188 207.839844 79.238281 Z M 248.582031 79.238281 C 248.074219 79.242188 247.585938 79.34375 247.117188 79.542969 C 246.648438 79.738281 246.234375 80.019531 245.875 80.378906 C 245.515625 80.742188 245.242188 81.15625 245.046875 81.625 C 244.855469 82.09375 244.757812 82.585938 244.761719 83.09375 C 244.761719 83.601562 244.859375 84.089844 245.054688 84.558594 C 245.25 85.027344 245.523438 85.441406 245.882812 85.800781 C 246.242188 86.160156 246.65625 86.441406 247.128906 86.636719 C 247.597656 86.832031 248.085938 86.929688 248.59375 86.933594 C 249.105469 86.933594 249.59375 86.839844 250.066406 86.648438 C 250.535156 86.457031 250.953125 86.183594 251.316406 85.824219 C 251.675781 85.46875 251.957031 85.058594 252.15625 84.589844 C 252.355469 84.121094 252.457031 83.632812 252.460938 83.125 C 252.464844 82.871094 252.441406 82.617188 252.394531 82.367188 C 252.347656 82.113281 252.273438 81.871094 252.179688 81.632812 C 252.082031 81.398438 251.960938 81.171875 251.820312 80.960938 C 251.679688 80.746094 251.519531 80.550781 251.339844 80.371094 C 251.15625 80.1875 250.960938 80.027344 250.746094 79.886719 C 250.535156 79.746094 250.308594 79.625 250.074219 79.527344 C 249.835938 79.429688 249.59375 79.359375 249.34375 79.308594 C 249.089844 79.261719 248.835938 79.238281 248.582031 79.238281 Z M 289.3125 79.238281 C 288.800781 79.238281 288.308594 79.335938 287.835938 79.53125 C 287.367188 79.726562 286.949219 80.007812 286.585938 80.367188 C 286.226562 80.730469 285.949219 81.144531 285.753906 81.617188 C 285.558594 82.089844 285.460938 82.578125 285.460938 83.089844 C 285.460938 83.601562 285.558594 84.089844 285.753906 84.5625 C 285.953125 85.03125 286.230469 85.449219 286.59375 85.808594 C 286.953125 86.167969 287.371094 86.445312 287.84375 86.640625 C 288.316406 86.835938 288.808594 86.933594 289.320312 86.933594 C 289.828125 86.929688 290.320312 86.832031 290.792969 86.636719 C 291.265625 86.441406 291.679688 86.160156 292.042969 85.800781 C 292.402344 85.4375 292.679688 85.023438 292.875 84.550781 C 293.070312 84.078125 293.164062 83.585938 293.164062 83.078125 C 293.164062 82.566406 293.0625 82.078125 292.867188 81.609375 C 292.671875 81.136719 292.394531 80.722656 292.03125 80.363281 C 291.671875 80.003906 291.253906 79.726562 290.785156 79.53125 C 290.3125 79.335938 289.824219 79.238281 289.3125 79.238281 Z M 330.054688 79.238281 C 329.542969 79.238281 329.050781 79.335938 328.578125 79.53125 C 328.105469 79.726562 327.691406 80.007812 327.328125 80.367188 C 326.96875 80.730469 326.6875 81.144531 326.492188 81.617188 C 326.296875 82.089844 326.203125 82.578125 326.203125 83.089844 C 326.203125 83.601562 326.300781 84.089844 326.496094 84.5625 C 326.691406 85.03125 326.972656 85.449219 327.332031 85.808594 C 327.695312 86.167969 328.113281 86.445312 328.585938 86.640625 C 329.058594 86.835938 329.546875 86.933594 330.058594 86.933594 C 330.570312 86.929688 331.0625 86.832031 331.535156 86.636719 C 332.003906 86.441406 332.421875 86.160156 332.78125 85.800781 C 333.144531 85.4375 333.421875 85.023438 333.613281 84.550781 C 333.808594 84.078125 333.90625 83.585938 333.90625 83.078125 C 333.902344 82.566406 333.804688 82.078125 333.609375 81.609375 C 333.414062 81.136719 333.132812 80.722656 332.773438 80.363281 C 332.410156 80.003906 331.996094 79.726562 331.523438 79.53125 C 331.054688 79.335938 330.5625 79.238281 330.054688 79.238281 Z M 370.792969 79.238281 C 370.28125 79.234375 369.789062 79.328125 369.316406 79.519531 C 368.84375 79.707031 368.425781 79.980469 368.058594 80.339844 C 367.695312 80.695312 367.410156 81.109375 367.210938 81.578125 C 367.011719 82.046875 366.910156 82.535156 366.902344 83.046875 C 366.898438 83.558594 366.992188 84.046875 367.179688 84.519531 C 367.371094 84.996094 367.644531 85.414062 368.003906 85.777344 C 368.359375 86.140625 368.773438 86.425781 369.246094 86.625 C 369.714844 86.824219 370.203125 86.925781 370.714844 86.933594 C 371.226562 86.9375 371.71875 86.84375 372.191406 86.65625 C 372.664062 86.464844 373.085938 86.191406 373.449219 85.832031 C 373.816406 85.476562 374.097656 85.0625 374.296875 84.59375 C 374.496094 84.125 374.601562 83.636719 374.605469 83.125 C 374.609375 82.617188 374.519531 82.125 374.328125 81.652344 C 374.136719 81.175781 373.863281 80.757812 373.503906 80.394531 C 373.148438 80.03125 372.734375 79.746094 372.265625 79.546875 C 371.796875 79.347656 371.304688 79.246094 370.792969 79.238281 Z M 4.148438 118.585938 C 3.636719 118.585938 3.144531 118.683594 2.675781 118.875 C 2.203125 119.070312 1.785156 119.34375 1.425781 119.703125 C 1.0625 120.0625 0.78125 120.476562 0.585938 120.945312 C 0.386719 121.414062 0.289062 121.90625 0.285156 122.414062 C 0.285156 122.921875 0.378906 123.414062 0.570312 123.886719 C 0.761719 124.355469 1.039062 124.773438 1.398438 125.136719 C 1.753906 125.5 2.167969 125.777344 2.636719 125.976562 C 3.109375 126.175781 3.597656 126.277344 4.109375 126.28125 C 4.617188 126.285156 5.109375 126.191406 5.582031 126 C 6.054688 125.808594 6.472656 125.535156 6.835938 125.175781 C 7.199219 124.820312 7.480469 124.40625 7.679688 123.9375 C 7.882812 123.472656 7.984375 122.980469 7.988281 122.472656 C 7.992188 121.960938 7.894531 121.46875 7.703125 120.996094 C 7.507812 120.523438 7.230469 120.105469 6.871094 119.742188 C 6.511719 119.382812 6.09375 119.101562 5.621094 118.90625 C 5.148438 118.707031 4.660156 118.609375 4.148438 118.605469 Z M 44.886719 118.585938 C 44.375 118.585938 43.886719 118.683594 43.414062 118.875 C 42.941406 119.070312 42.523438 119.347656 42.160156 119.707031 C 41.796875 120.066406 41.519531 120.484375 41.324219 120.953125 C 41.125 121.425781 41.027344 121.917969 41.027344 122.425781 C 41.027344 122.9375 41.121094 123.429688 41.316406 123.898438 C 41.511719 124.371094 41.789062 124.789062 42.152344 125.148438 C 42.511719 125.511719 42.929688 125.789062 43.398438 125.984375 C 43.871094 126.179688 44.363281 126.277344 44.875 126.28125 C 45.386719 126.28125 45.878906 126.183594 46.347656 125.988281 C 46.820312 125.792969 47.238281 125.515625 47.601562 125.152344 C 47.960938 124.792969 48.238281 124.378906 48.4375 123.90625 C 48.632812 123.433594 48.730469 122.945312 48.730469 122.433594 C 48.726562 121.925781 48.628906 121.4375 48.429688 120.96875 C 48.234375 120.5 47.957031 120.089844 47.597656 119.730469 C 47.238281 119.371094 46.824219 119.09375 46.355469 118.902344 C 45.882812 118.707031 45.394531 118.609375 44.886719 118.605469 Z M 85.617188 118.585938 C 85.109375 118.585938 84.617188 118.683594 84.148438 118.878906 C 83.675781 119.074219 83.261719 119.351562 82.898438 119.710938 C 82.539062 120.070312 82.261719 120.484375 82.0625 120.953125 C 81.867188 121.421875 81.769531 121.910156 81.765625 122.421875 C 81.765625 122.929688 81.859375 123.417969 82.054688 123.890625 C 82.246094 124.359375 82.523438 124.777344 82.882812 125.140625 C 83.238281 125.5 83.652344 125.78125 84.125 125.976562 C 84.59375 126.175781 85.082031 126.277344 85.59375 126.28125 C 86.101562 126.28125 86.59375 126.1875 87.066406 125.996094 C 87.539062 125.808594 87.957031 125.53125 88.320312 125.175781 C 88.683594 124.820312 88.964844 124.40625 89.164062 123.9375 C 89.363281 123.46875 89.464844 122.980469 89.46875 122.472656 C 89.472656 121.960938 89.375 121.46875 89.183594 120.996094 C 88.988281 120.519531 88.710938 120.101562 88.347656 119.742188 C 87.988281 119.378906 87.570312 119.097656 87.097656 118.902344 C 86.625 118.707031 86.132812 118.605469 85.617188 118.605469 Z M 126.359375 118.585938 C 125.847656 118.585938 125.355469 118.683594 124.886719 118.878906 C 124.414062 119.074219 123.996094 119.351562 123.636719 119.714844 C 123.273438 120.074219 122.996094 120.492188 122.800781 120.960938 C 122.605469 121.433594 122.507812 121.921875 122.507812 122.433594 C 122.507812 122.945312 122.605469 123.433594 122.800781 123.90625 C 122.996094 124.375 123.273438 124.792969 123.636719 125.152344 C 123.996094 125.515625 124.414062 125.792969 124.886719 125.988281 C 125.355469 126.183594 125.847656 126.28125 126.359375 126.28125 C 126.871094 126.28125 127.363281 126.183594 127.832031 125.988281 C 128.304688 125.792969 128.722656 125.515625 129.082031 125.152344 C 129.445312 124.792969 129.722656 124.375 129.917969 123.90625 C 130.113281 123.433594 130.210938 122.945312 130.210938 122.433594 C 130.207031 121.925781 130.109375 121.441406 129.914062 120.972656 C 129.71875 120.503906 129.441406 120.089844 129.082031 119.734375 C 128.722656 119.375 128.3125 119.097656 127.84375 118.902344 C 127.375 118.707031 126.886719 118.609375 126.378906 118.605469 Z M 167.101562 118.585938 C 166.589844 118.585938 166.097656 118.683594 165.625 118.878906 C 165.15625 119.074219 164.738281 119.351562 164.375 119.714844 C 164.015625 120.074219 163.738281 120.492188 163.542969 120.960938 C 163.347656 121.433594 163.25 121.921875 163.25 122.433594 C 163.25 122.945312 163.347656 123.433594 163.542969 123.90625 C 163.738281 124.375 164.015625 124.792969 164.375 125.152344 C 164.738281 125.515625 165.15625 125.792969 165.625 125.988281 C 166.097656 126.183594 166.589844 126.28125 167.101562 126.28125 C 167.609375 126.28125 168.101562 126.183594 168.574219 125.988281 C 169.046875 125.792969 169.460938 125.515625 169.824219 125.152344 C 170.183594 124.792969 170.460938 124.375 170.660156 123.90625 C 170.855469 123.433594 170.953125 122.945312 170.953125 122.433594 C 170.949219 121.925781 170.847656 121.4375 170.652344 120.96875 C 170.457031 120.5 170.175781 120.085938 169.816406 119.726562 C 169.457031 119.367188 169.039062 119.089844 168.570312 118.898438 C 168.097656 118.703125 167.609375 118.605469 167.101562 118.605469 Z M 207.839844 118.585938 C 207.328125 118.585938 206.839844 118.683594 206.367188 118.875 C 205.894531 119.070312 205.476562 119.347656 205.113281 119.707031 C 204.75 120.066406 204.472656 120.484375 204.277344 120.953125 C 204.078125 121.425781 203.980469 121.917969 203.980469 122.425781 C 203.980469 122.9375 204.074219 123.429688 204.269531 123.898438 C 204.464844 124.371094 204.742188 124.789062 205.105469 125.148438 C 205.464844 125.511719 205.882812 125.789062 206.351562 125.984375 C 206.824219 126.179688 207.316406 126.277344 207.828125 126.28125 C 208.339844 126.28125 208.832031 126.183594 209.300781 125.988281 C 209.773438 125.792969 210.191406 125.515625 210.554688 125.152344 C 210.914062 124.792969 211.191406 124.378906 211.390625 123.90625 C 211.585938 123.433594 211.683594 122.945312 211.683594 122.433594 C 211.679688 121.925781 211.582031 121.4375 211.382812 120.96875 C 211.1875 120.5 210.910156 120.089844 210.550781 119.730469 C 210.191406 119.371094 209.777344 119.09375 209.308594 118.902344 C 208.835938 118.707031 208.347656 118.609375 207.839844 118.605469 Z M 248.582031 118.585938 C 248.074219 118.589844 247.585938 118.691406 247.117188 118.890625 C 246.648438 119.085938 246.234375 119.367188 245.875 119.726562 C 245.515625 120.085938 245.242188 120.503906 245.046875 120.972656 C 244.855469 121.441406 244.757812 121.933594 244.761719 122.441406 C 244.761719 122.949219 244.859375 123.4375 245.054688 123.90625 C 245.25 124.375 245.523438 124.789062 245.882812 125.148438 C 246.242188 125.507812 246.65625 125.785156 247.128906 125.984375 C 247.597656 126.179688 248.085938 126.277344 248.59375 126.28125 C 249.105469 126.28125 249.59375 126.1875 250.066406 125.996094 C 250.535156 125.804688 250.953125 125.53125 251.316406 125.171875 C 251.675781 124.816406 251.957031 124.402344 252.15625 123.9375 C 252.355469 123.46875 252.457031 122.980469 252.460938 122.472656 C 252.464844 122.21875 252.441406 121.964844 252.390625 121.714844 C 252.34375 121.464844 252.269531 121.222656 252.171875 120.988281 C 252.074219 120.753906 251.957031 120.527344 251.8125 120.316406 C 251.671875 120.105469 251.511719 119.910156 251.332031 119.730469 C 251.152344 119.550781 250.953125 119.390625 250.742188 119.25 C 250.527344 119.109375 250.304688 118.988281 250.070312 118.894531 C 249.832031 118.796875 249.589844 118.722656 249.339844 118.675781 C 249.089844 118.628906 248.835938 118.605469 248.582031 118.605469 Z M 289.3125 118.585938 C 288.800781 118.585938 288.308594 118.683594 287.839844 118.878906 C 287.367188 119.074219 286.949219 119.351562 286.589844 119.714844 C 286.226562 120.074219 285.949219 120.492188 285.753906 120.960938 C 285.558594 121.433594 285.460938 121.921875 285.460938 122.433594 C 285.460938 122.945312 285.558594 123.433594 285.753906 123.90625 C 285.949219 124.375 286.226562 124.792969 286.589844 125.152344 C 286.949219 125.515625 287.367188 125.792969 287.839844 125.988281 C 288.308594 126.183594 288.800781 126.28125 289.3125 126.28125 C 289.824219 126.28125 290.316406 126.183594 290.785156 125.988281 C 291.257812 125.792969 291.675781 125.515625 292.035156 125.152344 C 292.398438 124.792969 292.675781 124.375 292.871094 123.90625 C 293.066406 123.433594 293.164062 122.945312 293.164062 122.433594 C 293.160156 121.925781 293.0625 121.4375 292.863281 120.96875 C 292.667969 120.5 292.390625 120.085938 292.027344 119.726562 C 291.667969 119.367188 291.253906 119.089844 290.78125 118.898438 C 290.3125 118.703125 289.820312 118.605469 289.3125 118.605469 Z M 330.054688 118.585938 C 329.542969 118.585938 329.050781 118.683594 328.578125 118.878906 C 328.105469 119.074219 327.691406 119.351562 327.328125 119.714844 C 326.96875 120.074219 326.691406 120.492188 326.496094 120.960938 C 326.300781 121.433594 326.203125 121.921875 326.203125 122.433594 C 326.203125 122.945312 326.300781 123.433594 326.496094 123.90625 C 326.691406 124.375 326.96875 124.792969 327.328125 125.152344 C 327.691406 125.515625 328.105469 125.792969 328.578125 125.988281 C 329.050781 126.183594 329.542969 126.28125 330.054688 126.28125 C 330.5625 126.28125 331.054688 126.183594 331.527344 125.988281 C 332 125.792969 332.414062 125.515625 332.777344 125.152344 C 333.136719 124.792969 333.414062 124.375 333.613281 123.90625 C 333.808594 123.433594 333.90625 122.945312 333.90625 122.433594 C 333.902344 121.925781 333.800781 121.4375 333.605469 120.96875 C 333.410156 120.5 333.128906 120.085938 332.769531 119.726562 C 332.410156 119.367188 331.992188 119.089844 331.523438 118.898438 C 331.050781 118.703125 330.5625 118.605469 330.054688 118.605469 Z M 370.792969 118.585938 C 370.28125 118.582031 369.789062 118.675781 369.316406 118.863281 C 368.84375 119.054688 368.425781 119.328125 368.058594 119.6875 C 367.695312 120.042969 367.410156 120.457031 367.210938 120.925781 C 367.011719 121.394531 366.910156 121.882812 366.902344 122.394531 C 366.898438 122.902344 366.992188 123.394531 367.179688 123.867188 C 367.371094 124.34375 367.644531 124.761719 368.003906 125.125 C 368.359375 125.488281 368.773438 125.769531 369.246094 125.972656 C 369.714844 126.171875 370.203125 126.273438 370.714844 126.277344 C 371.226562 126.285156 371.71875 126.191406 372.191406 126 C 372.664062 125.8125 373.085938 125.539062 373.449219 125.179688 C 373.816406 124.824219 374.097656 124.410156 374.296875 123.941406 C 374.496094 123.472656 374.601562 122.984375 374.605469 122.472656 C 374.609375 121.964844 374.515625 121.476562 374.320312 121.003906 C 374.128906 120.53125 373.855469 120.117188 373.5 119.753906 C 373.140625 119.390625 372.730469 119.113281 372.261719 118.914062 C 371.792969 118.714844 371.304688 118.613281 370.792969 118.605469 Z M 4.148438 157.984375 C 3.636719 157.980469 3.144531 158.078125 2.671875 158.273438 C 2.199219 158.46875 1.78125 158.746094 1.417969 159.105469 C 1.054688 159.464844 0.777344 159.882812 0.582031 160.351562 C 0.382812 160.824219 0.285156 161.316406 0.285156 161.828125 C 0.285156 162.335938 0.382812 162.828125 0.578125 163.300781 C 0.773438 163.773438 1.050781 164.1875 1.414062 164.550781 C 1.773438 164.910156 2.191406 165.1875 2.664062 165.382812 C 3.136719 165.578125 3.628906 165.675781 4.140625 165.675781 C 4.652344 165.675781 5.144531 165.578125 5.617188 165.382812 C 6.085938 165.183594 6.503906 164.90625 6.863281 164.542969 C 7.226562 164.183594 7.503906 163.765625 7.699219 163.292969 C 7.894531 162.820312 7.988281 162.332031 7.988281 161.820312 C 7.988281 161.3125 7.890625 160.824219 7.695312 160.351562 C 7.5 159.882812 7.21875 159.46875 6.859375 159.109375 C 6.5 158.75 6.085938 158.472656 5.617188 158.277344 C 5.144531 158.082031 4.65625 157.984375 4.148438 157.984375 Z M 44.886719 157.984375 C 44.375 157.980469 43.882812 158.078125 43.410156 158.273438 C 42.9375 158.46875 42.519531 158.746094 42.160156 159.105469 C 41.796875 159.464844 41.519531 159.882812 41.320312 160.351562 C 41.125 160.824219 41.027344 161.316406 41.027344 161.828125 C 41.027344 162.335938 41.125 162.828125 41.320312 163.300781 C 41.515625 163.773438 41.792969 164.1875 42.15625 164.550781 C 42.515625 164.910156 42.933594 165.1875 43.40625 165.382812 C 43.878906 165.578125 44.371094 165.675781 44.882812 165.675781 C 45.390625 165.675781 45.882812 165.578125 46.355469 165.382812 C 46.828125 165.183594 47.246094 164.90625 47.605469 164.546875 C 47.96875 164.183594 48.246094 163.765625 48.4375 163.292969 C 48.632812 162.820312 48.730469 162.332031 48.730469 161.820312 C 48.726562 161.3125 48.628906 160.824219 48.433594 160.351562 C 48.238281 159.882812 47.960938 159.46875 47.601562 159.109375 C 47.242188 158.75 46.828125 158.472656 46.355469 158.277344 C 45.886719 158.082031 45.398438 157.984375 44.886719 157.984375 Z M 85.617188 157.984375 C 85.109375 157.984375 84.617188 158.082031 84.144531 158.277344 C 83.671875 158.472656 83.253906 158.75 82.894531 159.113281 C 82.53125 159.472656 82.253906 159.890625 82.058594 160.359375 C 81.863281 160.832031 81.765625 161.324219 81.765625 161.832031 C 81.769531 162.34375 81.867188 162.835938 82.0625 163.304688 C 82.257812 163.777344 82.535156 164.191406 82.898438 164.554688 C 83.261719 164.914062 83.675781 165.191406 84.148438 165.386719 C 84.621094 165.582031 85.113281 165.675781 85.625 165.675781 C 86.136719 165.675781 86.628906 165.578125 87.097656 165.378906 C 87.570312 165.183594 87.988281 164.90625 88.347656 164.542969 C 88.707031 164.183594 88.984375 163.765625 89.179688 163.292969 C 89.375 162.820312 89.472656 162.332031 89.46875 161.820312 C 89.46875 161.3125 89.371094 160.820312 89.175781 160.351562 C 88.976562 159.882812 88.699219 159.464844 88.339844 159.105469 C 87.976562 158.746094 87.5625 158.46875 87.089844 158.277344 C 86.617188 158.082031 86.128906 157.984375 85.617188 157.984375 Z M 126.359375 157.984375 C 125.847656 157.984375 125.355469 158.082031 124.882812 158.277344 C 124.414062 158.472656 123.996094 158.75 123.636719 159.113281 C 123.273438 159.472656 122.996094 159.890625 122.800781 160.359375 C 122.605469 160.832031 122.507812 161.324219 122.507812 161.832031 C 122.507812 162.34375 122.605469 162.835938 122.800781 163.304688 C 123 163.777344 123.277344 164.191406 123.640625 164.554688 C 124 164.914062 124.417969 165.191406 124.890625 165.386719 C 125.363281 165.582031 125.855469 165.675781 126.367188 165.675781 C 126.875 165.675781 127.367188 165.578125 127.839844 165.378906 C 128.3125 165.183594 128.726562 164.90625 129.089844 164.542969 C 129.449219 164.183594 129.726562 163.765625 129.921875 163.292969 C 130.117188 162.820312 130.210938 162.332031 130.210938 161.820312 C 130.210938 161.3125 130.113281 160.824219 129.917969 160.355469 C 129.722656 159.886719 129.445312 159.472656 129.085938 159.113281 C 128.726562 158.753906 128.3125 158.476562 127.84375 158.28125 C 127.375 158.085938 126.886719 157.984375 126.378906 157.984375 Z M 167.101562 157.984375 C 166.589844 157.984375 166.097656 158.082031 165.625 158.277344 C 165.152344 158.472656 164.738281 158.75 164.375 159.113281 C 164.015625 159.472656 163.734375 159.890625 163.539062 160.359375 C 163.34375 160.832031 163.25 161.324219 163.25 161.832031 C 163.25 162.34375 163.347656 162.835938 163.542969 163.304688 C 163.738281 163.777344 164.019531 164.191406 164.378906 164.554688 C 164.742188 164.914062 165.160156 165.191406 165.632812 165.386719 C 166.105469 165.582031 166.59375 165.675781 167.105469 165.675781 C 167.617188 165.675781 168.109375 165.578125 168.582031 165.378906 C 169.050781 165.183594 169.46875 164.90625 169.828125 164.542969 C 170.191406 164.183594 170.46875 163.765625 170.660156 163.292969 C 170.855469 162.820312 170.953125 162.332031 170.953125 161.820312 C 170.949219 161.3125 170.851562 160.820312 170.65625 160.351562 C 170.460938 159.882812 170.179688 159.464844 169.820312 159.105469 C 169.460938 158.746094 169.042969 158.46875 168.570312 158.277344 C 168.101562 158.082031 167.609375 157.984375 167.101562 157.984375 Z M 207.839844 157.984375 C 207.328125 157.980469 206.835938 158.078125 206.363281 158.273438 C 205.890625 158.46875 205.472656 158.746094 205.113281 159.105469 C 204.75 159.464844 204.472656 159.882812 204.273438 160.351562 C 204.078125 160.824219 203.980469 161.316406 203.980469 161.828125 C 203.980469 162.335938 204.078125 162.828125 204.273438 163.300781 C 204.46875 163.773438 204.746094 164.1875 205.109375 164.550781 C 205.46875 164.910156 205.886719 165.1875 206.359375 165.382812 C 206.832031 165.578125 207.324219 165.675781 207.835938 165.675781 C 208.34375 165.675781 208.835938 165.578125 209.308594 165.382812 C 209.78125 165.183594 210.199219 164.90625 210.558594 164.546875 C 210.917969 164.183594 211.199219 163.765625 211.390625 163.292969 C 211.585938 162.820312 211.683594 162.332031 211.683594 161.820312 C 211.679688 161.3125 211.582031 160.824219 211.386719 160.351562 C 211.191406 159.882812 210.914062 159.46875 210.554688 159.109375 C 210.195312 158.75 209.78125 158.472656 209.308594 158.277344 C 208.839844 158.082031 208.351562 157.984375 207.839844 157.984375 Z M 248.582031 157.984375 C 248.070312 157.988281 247.582031 158.089844 247.113281 158.289062 C 246.640625 158.484375 246.226562 158.765625 245.871094 159.128906 C 245.511719 159.492188 245.234375 159.910156 245.042969 160.378906 C 244.851562 160.851562 244.757812 161.34375 244.757812 161.851562 C 244.761719 162.363281 244.863281 162.851562 245.0625 163.320312 C 245.257812 163.789062 245.539062 164.203125 245.902344 164.5625 C 246.265625 164.921875 246.679688 165.199219 247.152344 165.390625 C 247.625 165.582031 248.117188 165.679688 248.628906 165.675781 C 249.136719 165.671875 249.628906 165.574219 250.097656 165.378906 C 250.570312 165.179688 250.984375 164.902344 251.34375 164.539062 C 251.703125 164.179688 251.980469 163.761719 252.171875 163.292969 C 252.367188 162.820312 252.464844 162.328125 252.460938 161.820312 C 252.460938 161.308594 252.363281 160.816406 252.164062 160.34375 C 251.964844 159.871094 251.683594 159.457031 251.320312 159.097656 C 250.957031 158.734375 250.535156 158.460938 250.0625 158.265625 C 249.585938 158.074219 249.09375 157.980469 248.582031 157.984375 Z M 289.3125 157.984375 C 288.800781 157.984375 288.308594 158.082031 287.835938 158.277344 C 287.367188 158.472656 286.949219 158.75 286.589844 159.113281 C 286.226562 159.472656 285.949219 159.890625 285.753906 160.359375 C 285.558594 160.832031 285.460938 161.324219 285.460938 161.832031 C 285.460938 162.34375 285.558594 162.835938 285.753906 163.304688 C 285.953125 163.777344 286.230469 164.191406 286.59375 164.554688 C 286.953125 164.914062 287.371094 165.191406 287.84375 165.386719 C 288.316406 165.582031 288.808594 165.675781 289.320312 165.675781 C 289.828125 165.675781 290.320312 165.578125 290.792969 165.378906 C 291.265625 165.183594 291.679688 164.90625 292.042969 164.542969 C 292.402344 164.183594 292.679688 163.765625 292.875 163.292969 C 293.070312 162.820312 293.164062 162.332031 293.164062 161.820312 C 293.164062 161.3125 293.0625 160.820312 292.867188 160.351562 C 292.671875 159.882812 292.394531 159.464844 292.03125 159.105469 C 291.671875 158.746094 291.253906 158.46875 290.785156 158.277344 C 290.3125 158.082031 289.824219 157.984375 289.3125 157.984375 Z M 330.054688 157.984375 C 329.542969 157.984375 329.050781 158.082031 328.578125 158.277344 C 328.105469 158.472656 327.691406 158.75 327.328125 159.113281 C 326.96875 159.472656 326.6875 159.890625 326.492188 160.359375 C 326.296875 160.832031 326.203125 161.324219 326.203125 161.832031 C 326.203125 162.34375 326.300781 162.835938 326.496094 163.304688 C 326.691406 163.777344 326.972656 164.191406 327.332031 164.554688 C 327.695312 164.914062 328.113281 165.191406 328.585938 165.386719 C 329.058594 165.582031 329.546875 165.675781 330.058594 165.675781 C 330.570312 165.675781 331.0625 165.578125 331.535156 165.378906 C 332.003906 165.183594 332.421875 164.90625 332.78125 164.542969 C 333.144531 164.183594 333.421875 163.765625 333.613281 163.292969 C 333.808594 162.820312 333.90625 162.332031 333.90625 161.820312 C 333.902344 161.3125 333.804688 160.820312 333.609375 160.351562 C 333.414062 159.882812 333.132812 159.464844 332.773438 159.105469 C 332.414062 158.746094 331.996094 158.46875 331.523438 158.277344 C 331.054688 158.082031 330.5625 157.984375 330.054688 157.984375 Z M 370.792969 157.984375 C 370.28125 157.976562 369.789062 158.070312 369.3125 158.261719 C 368.839844 158.453125 368.417969 158.730469 368.054688 159.089844 C 367.6875 159.445312 367.40625 159.863281 367.207031 160.332031 C 367.007812 160.804688 366.90625 161.296875 366.902344 161.808594 C 366.898438 162.316406 366.996094 162.8125 367.1875 163.285156 C 367.382812 163.757812 367.660156 164.175781 368.019531 164.539062 C 368.382812 164.902344 368.796875 165.183594 369.269531 165.378906 C 369.742188 165.574219 370.234375 165.675781 370.746094 165.675781 C 371.261719 165.675781 371.753906 165.578125 372.226562 165.382812 C 372.699219 165.1875 373.117188 164.910156 373.480469 164.546875 C 373.839844 164.1875 374.121094 163.769531 374.316406 163.296875 C 374.511719 162.824219 374.605469 162.332031 374.605469 161.820312 C 374.605469 161.3125 374.507812 160.828125 374.3125 160.359375 C 374.121094 159.894531 373.84375 159.480469 373.488281 159.121094 C 373.132812 158.761719 372.71875 158.484375 372.253906 158.285156 C 371.785156 158.089844 371.300781 157.988281 370.792969 157.984375 Z M 4.148438 197.332031 C 3.636719 197.328125 3.144531 197.425781 2.671875 197.621094 C 2.199219 197.816406 1.78125 198.09375 1.417969 198.453125 C 1.054688 198.8125 0.777344 199.230469 0.582031 199.699219 C 0.382812 200.171875 0.285156 200.664062 0.285156 201.175781 C 0.285156 201.683594 0.382812 202.175781 0.578125 202.648438 C 0.773438 203.121094 1.050781 203.535156 1.414062 203.898438 C 1.773438 204.257812 2.191406 204.535156 2.664062 204.730469 C 3.136719 204.925781 3.628906 205.023438 4.140625 205.023438 C 4.652344 205.023438 5.144531 204.925781 5.617188 204.730469 C 6.085938 204.53125 6.503906 204.253906 6.863281 203.890625 C 7.226562 203.53125 7.503906 203.113281 7.699219 202.640625 C 7.894531 202.167969 7.988281 201.679688 7.988281 201.167969 C 7.984375 200.660156 7.882812 200.171875 7.6875 199.707031 C 7.492188 199.238281 7.214844 198.828125 6.855469 198.46875 C 6.492188 198.113281 6.078125 197.835938 5.609375 197.644531 C 5.140625 197.449219 4.65625 197.351562 4.148438 197.351562 Z M 44.886719 197.332031 C 44.375 197.328125 43.886719 197.425781 43.414062 197.621094 C 42.941406 197.816406 42.523438 198.089844 42.160156 198.453125 C 41.796875 198.8125 41.519531 199.226562 41.324219 199.699219 C 41.125 200.167969 41.027344 200.660156 41.027344 201.171875 C 41.027344 201.679688 41.121094 202.171875 41.316406 202.644531 C 41.511719 203.117188 41.789062 203.53125 42.152344 203.894531 C 42.511719 204.253906 42.929688 204.53125 43.398438 204.730469 C 43.871094 204.925781 44.363281 205.023438 44.875 205.023438 C 45.386719 205.023438 45.878906 204.925781 46.347656 204.730469 C 46.820312 204.535156 47.238281 204.257812 47.601562 203.898438 C 47.960938 203.539062 48.238281 203.121094 48.4375 202.648438 C 48.632812 202.179688 48.730469 201.6875 48.730469 201.175781 C 48.726562 200.667969 48.628906 200.183594 48.429688 199.714844 C 48.234375 199.246094 47.957031 198.832031 47.597656 198.472656 C 47.238281 198.117188 46.824219 197.839844 46.355469 197.644531 C 45.882812 197.449219 45.394531 197.351562 44.886719 197.351562 Z M 85.617188 197.332031 C 85.109375 197.332031 84.617188 197.429688 84.144531 197.625 C 83.671875 197.820312 83.253906 198.097656 82.894531 198.457031 C 82.53125 198.820312 82.253906 199.234375 82.058594 199.707031 C 81.863281 200.179688 81.765625 200.671875 81.765625 201.179688 C 81.769531 201.691406 81.867188 202.179688 82.0625 202.652344 C 82.257812 203.125 82.535156 203.539062 82.898438 203.898438 C 83.261719 204.261719 83.675781 204.539062 84.148438 204.734375 C 84.621094 204.925781 85.113281 205.023438 85.625 205.023438 C 86.136719 205.023438 86.628906 204.925781 87.097656 204.726562 C 87.570312 204.53125 87.988281 204.253906 88.347656 203.890625 C 88.707031 203.53125 88.984375 203.113281 89.179688 202.640625 C 89.375 202.167969 89.472656 201.675781 89.46875 201.167969 C 89.464844 200.660156 89.367188 200.171875 89.167969 199.703125 C 88.972656 199.238281 88.691406 198.824219 88.332031 198.464844 C 87.972656 198.109375 87.554688 197.832031 87.085938 197.640625 C 86.617188 197.445312 86.125 197.351562 85.617188 197.351562 Z M 126.359375 197.332031 C 125.847656 197.332031 125.355469 197.429688 124.886719 197.625 C 124.414062 197.820312 123.996094 198.097656 123.636719 198.457031 C 123.273438 198.816406 122.996094 199.234375 122.800781 199.707031 C 122.605469 200.175781 122.507812 200.667969 122.507812 201.175781 C 122.507812 201.6875 122.605469 202.179688 122.800781 202.648438 C 122.996094 203.121094 123.273438 203.535156 123.636719 203.898438 C 123.996094 204.257812 124.414062 204.535156 124.886719 204.730469 C 125.355469 204.925781 125.847656 205.023438 126.359375 205.023438 C 126.871094 205.023438 127.363281 204.925781 127.832031 204.730469 C 128.304688 204.535156 128.722656 204.257812 129.082031 203.898438 C 129.445312 203.535156 129.722656 203.121094 129.917969 202.648438 C 130.113281 202.179688 130.210938 201.6875 130.210938 201.175781 C 130.207031 200.671875 130.109375 200.183594 129.914062 199.714844 C 129.71875 199.25 129.441406 198.835938 129.082031 198.476562 C 128.722656 198.117188 128.3125 197.84375 127.84375 197.648438 C 127.375 197.453125 126.886719 197.351562 126.378906 197.351562 Z M 167.101562 197.332031 C 166.589844 197.332031 166.097656 197.429688 165.625 197.625 C 165.15625 197.820312 164.738281 198.097656 164.375 198.457031 C 164.015625 198.816406 163.738281 199.234375 163.542969 199.707031 C 163.347656 200.175781 163.25 200.667969 163.25 201.175781 C 163.25 201.6875 163.347656 202.179688 163.542969 202.648438 C 163.738281 203.121094 164.015625 203.535156 164.375 203.898438 C 164.738281 204.257812 165.15625 204.535156 165.625 204.730469 C 166.097656 204.925781 166.589844 205.023438 167.101562 205.023438 C 167.609375 205.023438 168.101562 204.925781 168.574219 204.730469 C 169.046875 204.535156 169.460938 204.257812 169.824219 203.898438 C 170.183594 203.535156 170.460938 203.121094 170.660156 202.648438 C 170.855469 202.179688 170.953125 201.6875 170.953125 201.175781 C 170.949219 200.667969 170.847656 200.179688 170.652344 199.710938 C 170.457031 199.242188 170.175781 198.828125 169.816406 198.46875 C 169.457031 198.113281 169.039062 197.835938 168.570312 197.640625 C 168.097656 197.449219 167.609375 197.351562 167.101562 197.351562 Z M 207.839844 197.332031 C 207.328125 197.328125 206.839844 197.425781 206.367188 197.621094 C 205.894531 197.8125 205.476562 198.089844 205.113281 198.453125 C 204.75 198.8125 204.472656 199.226562 204.277344 199.699219 C 204.078125 200.167969 203.980469 200.660156 203.980469 201.171875 C 203.980469 201.679688 204.074219 202.171875 204.269531 202.644531 C 204.464844 203.117188 204.742188 203.53125 205.105469 203.894531 C 205.464844 204.253906 205.882812 204.53125 206.351562 204.730469 C 206.824219 204.925781 207.316406 205.023438 207.828125 205.023438 C 208.339844 205.023438 208.832031 204.925781 209.300781 204.730469 C 209.773438 204.535156 210.191406 204.257812 210.554688 203.898438 C 210.914062 203.539062 211.191406 203.121094 211.390625 202.648438 C 211.585938 202.179688 211.683594 201.6875 211.683594 201.175781 C 211.679688 200.667969 211.582031 200.183594 211.382812 199.714844 C 211.1875 199.246094 210.910156 198.832031 210.550781 198.472656 C 210.191406 198.117188 209.777344 197.839844 209.308594 197.644531 C 208.835938 197.449219 208.347656 197.351562 207.839844 197.351562 Z M 248.582031 197.332031 C 248.070312 197.335938 247.582031 197.4375 247.113281 197.632812 C 246.640625 197.832031 246.226562 198.113281 245.871094 198.476562 C 245.511719 198.839844 245.234375 199.257812 245.042969 199.726562 C 244.851562 200.199219 244.757812 200.691406 244.757812 201.199219 C 244.761719 201.710938 244.863281 202.199219 245.0625 202.667969 C 245.257812 203.136719 245.539062 203.550781 245.902344 203.910156 C 246.265625 204.269531 246.679688 204.542969 247.152344 204.738281 C 247.625 204.929688 248.117188 205.023438 248.628906 205.023438 C 249.136719 205.019531 249.628906 204.921875 250.097656 204.726562 C 250.570312 204.527344 250.984375 204.25 251.34375 203.886719 C 251.703125 203.527344 251.980469 203.109375 252.171875 202.636719 C 252.367188 202.167969 252.464844 201.675781 252.460938 201.167969 C 252.457031 200.65625 252.355469 200.167969 252.15625 199.699219 C 251.960938 199.226562 251.675781 198.8125 251.3125 198.457031 C 250.949219 198.097656 250.53125 197.824219 250.058594 197.632812 C 249.585938 197.441406 249.09375 197.347656 248.582031 197.351562 Z M 289.3125 197.332031 C 288.800781 197.332031 288.308594 197.429688 287.839844 197.625 C 287.367188 197.820312 286.949219 198.097656 286.589844 198.457031 C 286.226562 198.816406 285.949219 199.234375 285.753906 199.707031 C 285.558594 200.175781 285.460938 200.667969 285.460938 201.175781 C 285.460938 201.6875 285.558594 202.179688 285.753906 202.648438 C 285.949219 203.121094 286.226562 203.535156 286.589844 203.898438 C 286.949219 204.257812 287.367188 204.535156 287.839844 204.730469 C 288.308594 204.925781 288.800781 205.023438 289.3125 205.023438 C 289.824219 205.023438 290.316406 204.925781 290.785156 204.730469 C 291.257812 204.535156 291.675781 204.257812 292.035156 203.898438 C 292.398438 203.535156 292.675781 203.121094 292.871094 202.648438 C 293.066406 202.179688 293.164062 201.6875 293.164062 201.175781 C 293.160156 200.667969 293.0625 200.179688 292.863281 199.710938 C 292.667969 199.242188 292.390625 198.828125 292.027344 198.46875 C 291.667969 198.113281 291.253906 197.835938 290.78125 197.640625 C 290.3125 197.449219 289.820312 197.351562 289.3125 197.351562 Z M 330.054688 197.332031 C 329.542969 197.332031 329.050781 197.429688 328.578125 197.625 C 328.105469 197.820312 327.691406 198.097656 327.328125 198.457031 C 326.96875 198.816406 326.691406 199.234375 326.496094 199.707031 C 326.300781 200.175781 326.203125 200.667969 326.203125 201.175781 C 326.203125 201.6875 326.300781 202.179688 326.496094 202.648438 C 326.691406 203.121094 326.96875 203.535156 327.328125 203.898438 C 327.691406 204.257812 328.105469 204.535156 328.578125 204.730469 C 329.050781 204.925781 329.542969 205.023438 330.054688 205.023438 C 330.5625 205.023438 331.054688 204.925781 331.527344 204.730469 C 332 204.535156 332.414062 204.257812 332.777344 203.898438 C 333.136719 203.535156 333.414062 203.121094 333.613281 202.648438 C 333.808594 202.179688 333.90625 201.6875 333.90625 201.175781 C 333.902344 200.667969 333.800781 200.179688 333.605469 199.710938 C 333.410156 199.242188 333.128906 198.828125 332.769531 198.46875 C 332.410156 198.113281 331.992188 197.835938 331.523438 197.640625 C 331.050781 197.449219 330.5625 197.351562 330.054688 197.351562 Z M 370.792969 197.332031 C 370.28125 197.324219 369.789062 197.417969 369.3125 197.609375 C 368.839844 197.800781 368.417969 198.078125 368.054688 198.433594 C 367.6875 198.792969 367.40625 199.207031 367.207031 199.679688 C 367.007812 200.152344 366.90625 200.640625 366.902344 201.152344 C 366.898438 201.664062 366.996094 202.15625 367.1875 202.632812 C 367.382812 203.105469 367.660156 203.523438 368.019531 203.886719 C 368.382812 204.25 368.796875 204.527344 369.269531 204.726562 C 369.742188 204.921875 370.234375 205.023438 370.746094 205.023438 C 371.261719 205.023438 371.753906 204.925781 372.226562 204.730469 C 372.699219 204.535156 373.117188 204.257812 373.480469 203.894531 C 373.839844 203.535156 374.121094 203.117188 374.316406 202.644531 C 374.511719 202.171875 374.605469 201.679688 374.605469 201.167969 C 374.601562 200.664062 374.503906 200.179688 374.308594 199.714844 C 374.113281 199.25 373.839844 198.835938 373.480469 198.480469 C 373.125 198.125 372.714844 197.847656 372.25 197.652344 C 371.785156 197.457031 371.296875 197.355469 370.792969 197.351562 Z M 370.792969 197.332031 " fill-opacity="1" fill-rule="nonzero"/></g></svg>